<svg id="Layer_1" data-name="Layer 1" xmlns="http://www.w3.org/2000/svg" xmlns:xlink="http://www.w3.org/1999/xlink" viewBox="0 0 1445.44 429.69"><defs><style>.cls-1{fill:#fff;}.cls-1,.cls-3,.cls-4,.cls-5{fill-rule:evenodd;}.cls-2{mask:url(#mask);}.cls-3,.cls-5{fill:#c02e1d;opacity:0.5;}.cls-3{isolation:isolate;}.cls-4{fill:#d94e1f;}</style><mask id="mask" x="0.16" y="29.9" width="1981.34" height="399.79" maskUnits="userSpaceOnUse"><g transform="translate(0 -11.32)"><g id="b"><path id="a" class="cls-1" d="M261.7,286.68c421.48,0,1489,176.08,1489,39.24s478.75-248,57.27-248c-198.74,0-468.56,3.56-719.95-11.23C806.27,50.08,541.9,27.23,345,52.44-27.66,100.15-159.78,286.68,261.7,286.68Z"/></g></g></mask></defs><title>footer-red</title><g class="cls-2"><path class="cls-3" d="M160.7,346.68c421.48,0,972.75,179.79,972.75,42.95s579.94-255.25,158.46-255.25-707-147-707-10.15S-260.78,346.68,160.7,346.68Z" transform="translate(0 -11.32)"/></g><polygon id="retangle1" class="cls-4" points="0 0 1440 25.7 1396.88 275.87 266.11 230.4 0 0"/><polygon class="cls-5" points="572.29 97.18 517.93 275.87 1336.25 190.99 1174.06 47.04 572.29 97.18"/></svg>